<svg width="151" height="21" viewBox="0 0 151 21" fill="none" xmlns="http://www.w3.org/2000/svg">
<path d="M10.2456 0L12.5459 7.07952L19.9897 7.07952L13.9675 11.4549L16.2678 18.5344L10.2456 14.159L4.22338 18.5344L6.52366 11.4549L0.501454 7.07952L7.9453 7.07952L10.2456 0Z" fill="#FFC93D"/>
<path d="M10.2456 0L12.5459 7.07952L19.9897 7.07952L13.9675 11.4549L16.2678 18.5344L10.2456 14.159L4.22338 18.5344L6.52366 11.4549L0.501454 7.07952L7.9453 7.07952L10.2456 0Z" fill="#FFC93D"/>
<path d="M107.991 0L110.291 7.07952L117.735 7.07952L111.713 11.4549L114.013 18.5344L107.991 14.159L101.969 18.5344L104.269 11.4549L98.2467 7.07952L105.691 7.07952L107.991 0Z" fill="#FFC93D"/>
<path d="M107.991 0L110.291 7.07952L117.735 7.07952L111.713 11.4549L114.013 18.5344L107.991 14.159L101.969 18.5344L104.269 11.4549L98.2467 7.07952L105.691 7.07952L107.991 0Z" fill="#FFC93D"/>
<path d="M42.8274 0L45.1276 7.07952L52.5715 7.07952L46.5493 11.4549L48.8496 18.5344L42.8274 14.159L36.8052 18.5344L39.1054 11.4549L33.0832 7.07952L40.5271 7.07952L42.8274 0Z" fill="#FFC93D"/>
<path d="M42.8274 0L45.1276 7.07952L52.5715 7.07952L46.5493 11.4549L48.8496 18.5344L42.8274 14.159L36.8052 18.5344L39.1054 11.4549L33.0832 7.07952L40.5271 7.07952L42.8274 0Z" fill="#FFC93D"/>
<path d="M140.573 0L142.873 7.07952L150.317 7.07952L144.295 11.4549L146.595 18.5344L140.573 14.159L134.55 18.5344L136.851 11.4549L130.828 7.07952L138.272 7.07952L140.573 0Z" fill="#FFC93D"/>
<path d="M140.573 0L142.873 7.07952L150.317 7.07952L144.295 11.4549L146.595 18.5344L140.573 14.159L134.55 18.5344L136.851 11.4549L130.828 7.07952L138.272 7.07952L140.573 0Z" fill="#FFC93D"/>
<path d="M75.4091 0L77.7094 7.07952L85.1532 7.07952L79.131 11.4549L81.4313 18.5344L75.4091 14.159L69.3869 18.5344L71.6872 11.4549L65.665 7.07952L73.1088 7.07952L75.4091 0Z" fill="#FFC93D"/>
<path d="M75.4091 0L77.7094 7.07952L85.1532 7.07952L79.131 11.4549L81.4313 18.5344L75.4091 14.159L69.3869 18.5344L71.6872 11.4549L65.665 7.07952L73.1088 7.07952L75.4091 0Z" fill="#FFC93D"/>
</svg>
