<svg width="25" height="25" viewBox="0 0 25 25" fill="none" xmlns="http://www.w3.org/2000/svg">
<path d="M19.0623 5.94798C18.656 5.54173 17.9998 5.54173 17.5935 5.94798L12.4998 11.0313L7.40601 5.93756C6.99976 5.53131 6.34351 5.53131 5.93726 5.93756C5.53101 6.34381 5.53101 7.00006 5.93726 7.40631L11.031 12.5001L5.93726 17.5938C5.53101 18.0001 5.53101 18.6563 5.93726 19.0626C6.34351 19.4688 6.99976 19.4688 7.40601 19.0626L12.4998 13.9688L17.5935 19.0626C17.9998 19.4688 18.656 19.4688 19.0623 19.0626C19.4685 18.6563 19.4685 18.0001 19.0623 17.5938L13.9685 12.5001L19.0623 7.40631C19.4581 7.01048 19.4581 6.34381 19.0623 5.94798Z" fill="#5164E8"/>
</svg>
