<svg width="50" height="55" viewBox="0 0 50 55" fill="none" xmlns="http://www.w3.org/2000/svg">
<path d="M40 7.26172H10C8.15835 7.26172 6.66669 8.88652 6.66669 10.8926V43.5701C6.66669 45.5761 8.15835 47.2009 10 47.2009H40C41.8417 47.2009 43.3334 45.5761 43.3334 43.5701V10.8926C43.3334 8.88652 41.8417 7.26172 40 7.26172ZM18.2567 39.9392H13.34V22.7073H18.2567V39.9392ZM15.7484 20.2438C14.1634 20.2438 12.8817 18.8441 12.8817 17.1212C12.8817 15.3984 14.165 14.0005 15.7484 14.0005C17.3284 14.0005 18.6134 15.4002 18.6134 17.1212C18.6134 18.8441 17.3284 20.2438 15.7484 20.2438ZM36.6734 39.9392H31.76V31.5593C31.76 29.5605 31.7267 26.9899 29.205 26.9899C26.6467 26.9899 26.2534 29.1665 26.2534 31.414V39.9392H21.34V22.7073H26.0567V25.0619H26.1234C26.78 23.7076 28.3834 22.2788 30.775 22.2788C35.7534 22.2788 36.6734 25.848 36.6734 30.4882V39.9392Z" fill="#1D1C3E"/>
</svg>
