<svg width="173" height="36" viewBox="0 0 173 36" fill="none" xmlns="http://www.w3.org/2000/svg">
<g clip-path="url(#clip0_26_560)">
<path d="M0 21.3922C0 20.1814 0.934097 19.2 2.08636 19.2H10.7222C13.5388 19.2 15.8221 21.5992 15.8221 24.5588V33.8077C15.8221 35.0185 14.8881 36 13.7358 36H2.08636C0.934097 36 0 35.0185 0 33.8077V21.3922Z" fill="#6B7AE5"/>
<path d="M18.1376 24.5588C18.1376 21.5992 20.4766 19.2 23.362 19.2H32.2084C33.3887 19.2 34.3456 20.1814 34.3456 21.3922V33.8077C34.3456 35.0185 33.3887 36 32.2084 36H20.2748C19.0945 36 18.1376 35.0185 18.1376 33.8077V24.5588Z" fill="#6B7AE5"/>
<path d="M18.1376 2.24442C18.1376 1.00486 19.0945 0 20.2748 0H32.2084C33.3887 0 34.3456 1.00486 34.3456 2.24442V14.9556C34.3456 16.1951 33.3887 17.2 32.2084 17.2H23.362C20.4766 17.2 18.1376 14.7437 18.1376 11.7136V2.24442Z" fill="#6B7AE5"/>
<path d="M0 2.24442C0 1.00486 0.934097 0 2.08636 0H13.7358C14.8881 0 15.8221 1.00486 15.8221 2.24442V11.7136C15.8221 14.7437 13.5388 17.2 10.7222 17.2H2.08636C0.934097 17.2 0 16.1951 0 14.9556V2.24442Z" fill="#6B7AE5"/>
<path d="M66.1196 28.8042L61.7535 20.7217C63.776 19.9959 66.0231 17.9506 66.0231 14.1238C66.0231 10.033 63.3264 6.80005 58.5751 6.80005H47.8524V28.8042H53.3743V21.4145H56.1995L59.795 28.8042H66.1196ZM57.7404 16.466H53.3743V11.7485H57.7404C59.2173 11.7485 60.4051 12.5732 60.4051 14.0908C60.4051 15.6413 59.2173 16.466 57.7404 16.466Z" fill="#1D1C3E"/>
<path d="M84.3587 28.8041V12.8701H79.4149V23.1629C78.8368 23.9216 77.8735 24.7134 76.4611 24.7134C74.8561 24.7134 73.8929 24.0536 73.8929 22.1072V12.8701H68.9487V24.2186C68.9487 27.1216 70.5541 29.2 74.0535 29.2C76.6857 29.2 78.4516 28.0124 79.4149 26.8907V28.8041H84.3587Z" fill="#1D1C3E"/>
<path d="M92.8918 23.2949V18.4124C93.5016 17.5547 94.7859 16.9609 95.8452 16.9609C97.8036 16.9609 99.2805 18.4454 99.2805 20.8207C99.2805 23.2289 97.8036 24.7135 95.8452 24.7135C94.7859 24.7135 93.5016 24.1526 92.8918 23.2949ZM92.8918 28.8042V26.9568C94.1757 28.4743 95.7491 29.2001 97.4826 29.2001C101.303 29.2001 104.321 26.231 104.321 20.8207C104.321 15.6083 101.367 12.4743 97.4826 12.4743C95.7811 12.4743 94.1117 13.1671 92.8918 14.7506V6.80005H87.9476V28.8042H92.8918Z" fill="#1D1C3E"/>
<path d="M114.364 29.1999C116.9 29.1999 118.344 28.2102 119.661 26.5277L118.954 25.9009C117.702 27.6494 116.226 28.3092 114.428 28.3092C110.447 28.3092 108.103 24.9772 108.103 20.8205C108.103 16.6638 110.447 13.3648 114.428 13.3648C116.226 13.3648 117.702 13.9916 118.954 15.7401L119.661 15.1463C118.344 13.4638 116.9 12.4741 114.364 12.4741C109.869 12.4741 107.044 16.2349 107.044 20.8205C107.044 25.4061 109.869 29.1999 114.364 29.1999Z" fill="#1D1C3E"/>
<path d="M135.14 28.8041V12.8701H134.177V25.4062C133.085 26.9897 130.806 28.3093 128.687 28.3093C126.279 28.3093 124.674 27.3856 124.674 24.0536V12.8701H123.711V24.0536C123.711 27.8144 125.477 29.2 128.559 29.2C130.709 29.2 132.861 27.8804 134.177 26.3629V28.8041H135.14Z" fill="#1D1C3E"/>
<path d="M141.635 25.1423V16.598C142.598 14.9155 144.814 13.365 147.221 13.365C151.01 13.365 153.096 16.664 153.096 20.8537C153.096 25.0433 151.01 28.3093 147.221 28.3093C144.814 28.3093 142.598 26.8248 141.635 25.1423ZM141.635 28.8042V26.132C142.695 27.7815 144.782 29.2001 147.221 29.2001C151.395 29.2001 154.156 25.9011 154.156 20.8537C154.156 15.8392 151.395 12.4743 147.221 12.4743C144.91 12.4743 142.887 13.7279 141.635 15.6083V6.80005H140.672V28.8042H141.635Z" fill="#1D1C3E"/>
<path d="M165.63 29.1999C168.23 29.1999 170.028 28.2102 171.601 26.5277L171.023 25.9009C169.579 27.4844 167.813 28.3092 165.63 28.3092C161.681 28.3092 159.209 25.0432 159.113 21.1504H172.5V20.8205C172.5 16.3999 170.06 12.4741 165.309 12.4741C161.135 12.4741 158.021 16.202 158.021 20.8205C158.021 25.67 161.135 29.1999 165.63 29.1999ZM171.473 20.2597H159.113C159.209 17.1256 161.296 13.3648 165.277 13.3648C169.514 13.3648 171.473 17.1916 171.473 20.2597Z" fill="#1D1C3E"/>
</g>
<defs>
<clipPath id="clip0_26_560">
<rect width="172.5" height="36" fill="white"/>
</clipPath>
</defs>
</svg>
