<svg width="199" height="50" viewBox="0 0 199 50" fill="none" xmlns="http://www.w3.org/2000/svg">
<path d="M0 27.8032C0 26.3132 1.21152 25.1053 2.70601 25.1053H13.9066C17.5598 25.1053 20.5213 28.0579 20.5213 31.7002V43.0824C20.5213 44.5724 19.3098 45.7803 17.8153 45.7803H2.70601C1.21152 45.7803 0 44.5724 0 43.0824V27.8032Z" fill="#6B7AE5"/>
<path d="M23.5243 31.7002C23.5243 28.0579 26.558 25.1053 30.3003 25.1053H41.7741C43.305 25.1053 44.5461 26.3132 44.5461 27.8032V43.0824C44.5461 44.5724 43.305 45.7803 41.7741 45.7803H26.2963C24.7654 45.7803 23.5243 44.5724 23.5243 43.0824V31.7002Z" fill="#6B7AE5"/>
<path d="M23.5243 4.23891C23.5243 2.71344 24.7654 1.47681 26.2963 1.47681H41.7741C43.305 1.47681 44.5461 2.71344 44.5461 4.23891V19.8819C44.5461 21.4073 43.305 22.644 41.7741 22.644H30.3003C26.558 22.644 23.5243 19.6211 23.5243 15.8922V4.23891Z" fill="#6B7AE5"/>
<path d="M0 4.23891C0 2.71344 1.21152 1.47681 2.70601 1.47681H17.8153C19.3098 1.47681 20.5213 2.71344 20.5213 4.23891V15.8922C20.5213 19.6211 17.5598 22.644 13.9066 22.644H2.70601C1.21152 22.644 0 21.4073 0 19.8819V4.23891Z" fill="#6B7AE5"/>
<path d="M59.7038 11.4062H69.53C71.487 11.4062 73.1804 11.6992 74.61 12.2852C76.0515 12.8711 77.1589 13.7383 77.9323 14.8867C78.7057 16.0352 79.0925 17.4531 79.0925 19.1406C79.0925 20.5469 78.864 21.7422 78.4069 22.7266C77.9499 23.7109 77.3054 24.5254 76.4733 25.1699C75.653 25.8145 74.6921 26.3359 73.5905 26.7344L71.7272 27.7539H63.36L63.3249 23.3066H69.5475C70.403 23.3066 71.112 23.1543 71.6745 22.8496C72.237 22.5449 72.6589 22.1172 72.9401 21.5664C73.2331 21.0039 73.3796 20.3477 73.3796 19.5977C73.3796 18.8242 73.2331 18.1562 72.9401 17.5938C72.6472 17.0312 72.2136 16.6035 71.6393 16.3105C71.0768 16.0059 70.3737 15.8535 69.53 15.8535H65.4343V37H59.7038V11.4062ZM73.8718 37L68.1237 25.627L74.1706 25.6094L80.0065 36.7363V37H73.8718ZM93.8581 32.4121V17.9805H99.3776V37H94.2097L93.8581 32.4121ZM94.4382 28.5273L95.9499 28.4922C95.9499 29.7695 95.7975 30.9473 95.4929 32.0254C95.1999 33.1035 94.7546 34.041 94.1569 34.8379C93.571 35.6348 92.8386 36.2559 91.9597 36.7012C91.0925 37.1348 90.0788 37.3516 88.9186 37.3516C87.9811 37.3516 87.1198 37.2227 86.3347 36.9648C85.5612 36.6953 84.8932 36.2793 84.3307 35.7168C83.7682 35.1426 83.3347 34.4102 83.03 33.5195C82.7253 32.6172 82.5729 31.5391 82.5729 30.2852V17.9805H88.0573V30.3203C88.0573 30.8125 88.1159 31.2344 88.2331 31.5859C88.362 31.9258 88.5319 32.207 88.7429 32.4297C88.9655 32.6523 89.235 32.8164 89.5515 32.9219C89.8796 33.0273 90.237 33.0801 90.6237 33.0801C91.5964 33.0801 92.3581 32.8809 92.9089 32.4824C93.4714 32.0723 93.864 31.5273 94.0866 30.8477C94.321 30.1562 94.4382 29.3828 94.4382 28.5273ZM102.964 10H108.448V32.4824L107.885 37H102.964V10ZM120.313 27.2793V27.6484C120.313 29.0898 120.161 30.4023 119.856 31.5859C119.563 32.7695 119.112 33.7949 118.503 34.6621C117.893 35.5176 117.126 36.1797 116.2 36.6484C115.274 37.1172 114.184 37.3516 112.93 37.3516C111.77 37.3516 110.774 37.1113 109.942 36.6309C109.11 36.1387 108.413 35.459 107.85 34.5918C107.288 33.7246 106.831 32.7109 106.479 31.5508C106.139 30.3906 105.876 29.1426 105.688 27.8066V27.1738C105.876 25.8379 106.139 24.5898 106.479 23.4297C106.831 22.2695 107.288 21.2559 107.85 20.3887C108.413 19.5215 109.104 18.8477 109.924 18.3672C110.757 17.875 111.747 17.6289 112.895 17.6289C114.161 17.6289 115.257 17.8691 116.182 18.3496C117.12 18.8301 117.893 19.5039 118.503 20.3711C119.112 21.2266 119.563 22.2461 119.856 23.4297C120.161 24.6016 120.313 25.8848 120.313 27.2793ZM114.829 27.6484V27.2793C114.829 26.5527 114.776 25.8672 114.671 25.2227C114.577 24.5781 114.407 24.0098 114.161 23.5176C113.926 23.0137 113.592 22.6211 113.159 22.3398C112.737 22.0469 112.192 21.9004 111.524 21.9004C110.868 21.9004 110.311 22.0117 109.854 22.2344C109.397 22.457 109.028 22.7734 108.747 23.1836C108.466 23.582 108.26 24.0684 108.132 24.6426C108.003 25.2168 107.932 25.8555 107.921 26.5586V28.4219C107.932 29.3594 108.055 30.1797 108.29 30.8828C108.524 31.5859 108.905 32.1309 109.432 32.5176C109.96 32.8926 110.669 33.0801 111.559 33.0801C112.239 33.0801 112.79 32.9512 113.212 32.6934C113.645 32.4238 113.973 32.0488 114.196 31.5684C114.43 31.0879 114.594 30.5137 114.688 29.8457C114.782 29.1777 114.829 28.4453 114.829 27.6484ZM124.286 10H125.692V33.3086L125.639 37H124.286V10ZM139.157 27.2969V27.666C139.157 29.1074 138.993 30.4199 138.665 31.6035C138.348 32.7871 137.88 33.8066 137.258 34.6621C136.649 35.5176 135.899 36.1797 135.008 36.6484C134.118 37.1172 133.104 37.3516 131.967 37.3516C130.878 37.3516 129.899 37.1875 129.032 36.8594C128.176 36.5312 127.438 36.0801 126.817 35.5059C126.196 34.9199 125.692 34.2461 125.305 33.4844C124.93 32.7109 124.667 31.8848 124.514 31.0059V24.4492C124.714 23.4531 125.012 22.5449 125.411 21.7246C125.809 20.8926 126.313 20.1719 126.923 19.5625C127.532 18.9414 128.253 18.4668 129.085 18.1387C129.928 17.7988 130.878 17.6289 131.932 17.6289C133.081 17.6289 134.1 17.8574 134.991 18.3145C135.893 18.7598 136.649 19.4043 137.258 20.248C137.88 21.0801 138.348 22.0938 138.665 23.2891C138.993 24.4727 139.157 25.8086 139.157 27.2969ZM137.733 27.666V27.2969C137.733 26.1016 137.616 24.9941 137.382 23.9746C137.147 22.9551 136.784 22.0703 136.292 21.3203C135.811 20.5703 135.196 19.9844 134.446 19.5625C133.696 19.1406 132.811 18.9297 131.792 18.9297C130.667 18.9297 129.717 19.1172 128.944 19.4922C128.182 19.8555 127.555 20.3301 127.063 20.916C126.583 21.502 126.202 22.1348 125.921 22.8145C125.651 23.4824 125.452 24.1152 125.323 24.7129V30.918C125.534 31.8438 125.903 32.6992 126.43 33.4844C126.969 34.2578 127.684 34.8789 128.575 35.3477C129.477 35.8164 130.561 36.0508 131.827 36.0508C132.835 36.0508 133.708 35.8398 134.446 35.418C135.196 34.9961 135.811 34.4102 136.292 33.6602C136.772 32.9102 137.13 32.0254 137.364 31.0059C137.61 29.9863 137.733 28.873 137.733 27.666ZM155.944 33.502V23.6758C155.944 22.6797 155.733 21.8242 155.311 21.1094C154.889 20.3945 154.274 19.8496 153.466 19.4746C152.657 19.0879 151.667 18.8945 150.495 18.8945C149.405 18.8945 148.426 19.0879 147.559 19.4746C146.704 19.8496 146.03 20.3652 145.538 21.0215C145.046 21.6777 144.799 22.4102 144.799 23.2188L143.393 23.2012C143.393 22.4746 143.563 21.7773 143.903 21.1094C144.255 20.4414 144.747 19.8496 145.38 19.334C146.024 18.8066 146.78 18.3906 147.647 18.0859C148.526 17.7812 149.487 17.6289 150.53 17.6289C151.866 17.6289 153.044 17.8574 154.063 18.3145C155.094 18.7598 155.897 19.4336 156.471 20.3359C157.046 21.2383 157.333 22.3633 157.333 23.7109V33.0977C157.333 33.7773 157.38 34.4629 157.473 35.1543C157.567 35.8457 157.696 36.4023 157.86 36.8242V37H156.331C156.202 36.5547 156.102 36.0098 156.032 35.3652C155.973 34.7207 155.944 34.0996 155.944 33.502ZM156.401 26.207L156.436 27.4199H151.796C150.624 27.4199 149.575 27.5312 148.649 27.7539C147.723 27.9766 146.938 28.293 146.294 28.7031C145.649 29.1133 145.157 29.5996 144.817 30.1621C144.477 30.7246 144.307 31.3574 144.307 32.0605C144.307 32.7871 144.501 33.4551 144.887 34.0645C145.274 34.6738 145.819 35.1602 146.522 35.5234C147.225 35.875 148.04 36.0508 148.966 36.0508C150.231 36.0508 151.35 35.834 152.323 35.4004C153.307 34.9551 154.133 34.3574 154.801 33.6074C155.469 32.8457 155.956 31.9668 156.26 30.9707L156.876 31.9902C156.676 32.6113 156.366 33.2383 155.944 33.8711C155.522 34.5039 154.977 35.084 154.309 35.6113C153.641 36.127 152.856 36.5488 151.954 36.877C151.051 37.1934 150.026 37.3516 148.878 37.3516C147.671 37.3516 146.616 37.1289 145.714 36.6836C144.823 36.2266 144.132 35.6055 143.639 34.8203C143.147 34.0234 142.901 33.1152 142.901 32.0957C142.901 31.2168 143.1 30.4141 143.499 29.6875C143.897 28.9609 144.471 28.3398 145.221 27.8242C145.983 27.2969 146.903 26.8984 147.981 26.6289C149.071 26.3477 150.296 26.207 151.655 26.207H156.401ZM164.663 22.041V37H163.274V17.9805H164.645L164.663 22.041ZM164.399 26.0312L163.714 25.2227C163.819 24.2148 164.065 23.2539 164.452 22.3398C164.85 21.4258 165.372 20.6172 166.016 19.9141C166.673 19.2109 167.434 18.6543 168.301 18.2441C169.18 17.834 170.147 17.6289 171.202 17.6289C172.151 17.6289 173.001 17.7637 173.751 18.0332C174.501 18.291 175.133 18.7012 175.649 19.2637C176.176 19.8262 176.575 20.5527 176.844 21.4434C177.114 22.3223 177.249 23.3945 177.249 24.6602V37H175.86V24.6602C175.86 23.1602 175.655 22 175.245 21.1797C174.835 20.3477 174.26 19.7617 173.522 19.4219C172.796 19.082 171.946 18.9121 170.973 18.9121C169.848 18.9121 168.876 19.1641 168.055 19.668C167.247 20.1602 166.579 20.7871 166.051 21.5488C165.524 22.2988 165.12 23.0781 164.839 23.8867C164.569 24.6953 164.423 25.4102 164.399 26.0312ZM184.438 10V37H183.032V10H184.438ZM196.549 17.9805L187.303 26.7695L184.034 29.7402L183.7 28.5098L186.565 25.6445L194.686 17.9805H196.549ZM195.424 37L186.776 26.6289L187.602 25.4688L197.147 37H195.424Z" fill="#1D1C3E"/>
</svg>
