<svg width="189" height="42" viewBox="0 0 189 42" fill="none" xmlns="http://www.w3.org/2000/svg">
<path d="M46.1094 7.40625H55.9355C57.8926 7.40625 59.5859 7.69922 61.0156 8.28516C62.457 8.87109 63.5645 9.73828 64.3379 10.8867C65.1113 12.0352 65.498 13.4531 65.498 15.1406C65.498 16.5469 65.2695 17.7422 64.8125 18.7266C64.3555 19.7109 63.7109 20.5254 62.8789 21.1699C62.0586 21.8145 61.0977 22.3359 59.9961 22.7344L58.1328 23.7539H49.7656L49.7305 19.3066H55.9531C56.8086 19.3066 57.5176 19.1543 58.0801 18.8496C58.6426 18.5449 59.0645 18.1172 59.3457 17.5664C59.6387 17.0039 59.7852 16.3477 59.7852 15.5977C59.7852 14.8242 59.6387 14.1562 59.3457 13.5938C59.0527 13.0312 58.6191 12.6035 58.0449 12.3105C57.4824 12.0059 56.7793 11.8535 55.9355 11.8535H51.8398V33H46.1094V7.40625ZM60.2773 33L54.5293 21.627L60.5762 21.6094L66.4121 32.7363V33H60.2773ZM80.2637 28.4121V13.9805H85.7832V33H80.6152L80.2637 28.4121ZM80.8438 24.5273L82.3555 24.4922C82.3555 25.7695 82.2031 26.9473 81.8984 28.0254C81.6055 29.1035 81.1602 30.041 80.5625 30.8379C79.9766 31.6348 79.2441 32.2559 78.3652 32.7012C77.498 33.1348 76.4844 33.3516 75.3242 33.3516C74.3867 33.3516 73.5254 33.2227 72.7402 32.9648C71.9668 32.6953 71.2988 32.2793 70.7363 31.7168C70.1738 31.1426 69.7402 30.4102 69.4355 29.5195C69.1309 28.6172 68.9785 27.5391 68.9785 26.2852V13.9805H74.4629V26.3203C74.4629 26.8125 74.5215 27.2344 74.6387 27.5859C74.7676 27.9258 74.9375 28.207 75.1484 28.4297C75.3711 28.6523 75.6406 28.8164 75.957 28.9219C76.2852 29.0273 76.6426 29.0801 77.0293 29.0801C78.002 29.0801 78.7637 28.8809 79.3145 28.4824C79.877 28.0723 80.2695 27.5273 80.4922 26.8477C80.7266 26.1562 80.8438 25.3828 80.8438 24.5273ZM89.3691 6H94.8535V28.4824L94.291 33H89.3691V6ZM106.719 23.2793V23.6484C106.719 25.0898 106.566 26.4023 106.262 27.5859C105.969 28.7695 105.518 29.7949 104.908 30.6621C104.299 31.5176 103.531 32.1797 102.605 32.6484C101.68 33.1172 100.59 33.3516 99.3359 33.3516C98.1758 33.3516 97.1797 33.1113 96.3477 32.6309C95.5156 32.1387 94.8184 31.459 94.2559 30.5918C93.6934 29.7246 93.2363 28.7109 92.8848 27.5508C92.5449 26.3906 92.2812 25.1426 92.0938 23.8066V23.1738C92.2812 21.8379 92.5449 20.5898 92.8848 19.4297C93.2363 18.2695 93.6934 17.2559 94.2559 16.3887C94.8184 15.5215 95.5098 14.8477 96.3301 14.3672C97.1621 13.875 98.1523 13.6289 99.3008 13.6289C100.566 13.6289 101.662 13.8691 102.588 14.3496C103.525 14.8301 104.299 15.5039 104.908 16.3711C105.518 17.2266 105.969 18.2461 106.262 19.4297C106.566 20.6016 106.719 21.8848 106.719 23.2793ZM101.234 23.6484V23.2793C101.234 22.5527 101.182 21.8672 101.076 21.2227C100.982 20.5781 100.812 20.0098 100.566 19.5176C100.332 19.0137 99.998 18.6211 99.5645 18.3398C99.1426 18.0469 98.5977 17.9004 97.9297 17.9004C97.2734 17.9004 96.7168 18.0117 96.2598 18.2344C95.8027 18.457 95.4336 18.7734 95.1523 19.1836C94.8711 19.582 94.666 20.0684 94.5371 20.6426C94.4082 21.2168 94.3379 21.8555 94.3262 22.5586V24.4219C94.3379 25.3594 94.4609 26.1797 94.6953 26.8828C94.9297 27.5859 95.3105 28.1309 95.8379 28.5176C96.3652 28.8926 97.0742 29.0801 97.9648 29.0801C98.6445 29.0801 99.1953 28.9512 99.6172 28.6934C100.051 28.4238 100.379 28.0488 100.602 27.5684C100.836 27.0879 101 26.5137 101.094 25.8457C101.188 25.1777 101.234 24.4453 101.234 23.6484ZM110.691 6H112.098V29.3086L112.045 33H110.691V6ZM125.562 23.2969V23.666C125.562 25.1074 125.398 26.4199 125.07 27.6035C124.754 28.7871 124.285 29.8066 123.664 30.6621C123.055 31.5176 122.305 32.1797 121.414 32.6484C120.523 33.1172 119.51 33.3516 118.373 33.3516C117.283 33.3516 116.305 33.1875 115.438 32.8594C114.582 32.5312 113.844 32.0801 113.223 31.5059C112.602 30.9199 112.098 30.2461 111.711 29.4844C111.336 28.7109 111.072 27.8848 110.92 27.0059V20.4492C111.119 19.4531 111.418 18.5449 111.816 17.7246C112.215 16.8926 112.719 16.1719 113.328 15.5625C113.938 14.9414 114.658 14.4668 115.49 14.1387C116.334 13.7988 117.283 13.6289 118.338 13.6289C119.486 13.6289 120.506 13.8574 121.396 14.3145C122.299 14.7598 123.055 15.4043 123.664 16.248C124.285 17.0801 124.754 18.0938 125.07 19.2891C125.398 20.4727 125.562 21.8086 125.562 23.2969ZM124.139 23.666V23.2969C124.139 22.1016 124.021 20.9941 123.787 19.9746C123.553 18.9551 123.189 18.0703 122.697 17.3203C122.217 16.5703 121.602 15.9844 120.852 15.5625C120.102 15.1406 119.217 14.9297 118.197 14.9297C117.072 14.9297 116.123 15.1172 115.35 15.4922C114.588 15.8555 113.961 16.3301 113.469 16.916C112.988 17.502 112.607 18.1348 112.326 18.8145C112.057 19.4824 111.857 20.1152 111.729 20.7129V26.918C111.939 27.8438 112.309 28.6992 112.836 29.4844C113.375 30.2578 114.09 30.8789 114.98 31.3477C115.883 31.8164 116.967 32.0508 118.232 32.0508C119.24 32.0508 120.113 31.8398 120.852 31.418C121.602 30.9961 122.217 30.4102 122.697 29.6602C123.178 28.9102 123.535 28.0254 123.77 27.0059C124.016 25.9863 124.139 24.873 124.139 23.666ZM142.35 29.502V19.6758C142.35 18.6797 142.139 17.8242 141.717 17.1094C141.295 16.3945 140.68 15.8496 139.871 15.4746C139.062 15.0879 138.072 14.8945 136.9 14.8945C135.811 14.8945 134.832 15.0879 133.965 15.4746C133.109 15.8496 132.436 16.3652 131.943 17.0215C131.451 17.6777 131.205 18.4102 131.205 19.2188L129.799 19.2012C129.799 18.4746 129.969 17.7773 130.309 17.1094C130.66 16.4414 131.152 15.8496 131.785 15.334C132.43 14.8066 133.186 14.3906 134.053 14.0859C134.932 13.7813 135.893 13.6289 136.936 13.6289C138.271 13.6289 139.449 13.8574 140.469 14.3145C141.5 14.7598 142.303 15.4336 142.877 16.3359C143.451 17.2383 143.738 18.3633 143.738 19.7109V29.0977C143.738 29.7773 143.785 30.4629 143.879 31.1543C143.973 31.8457 144.102 32.4023 144.266 32.8242V33H142.736C142.607 32.5547 142.508 32.0098 142.438 31.3652C142.379 30.7207 142.35 30.0996 142.35 29.502ZM142.807 22.207L142.842 23.4199H138.201C137.029 23.4199 135.98 23.5312 135.055 23.7539C134.129 23.9766 133.344 24.293 132.699 24.7031C132.055 25.1133 131.562 25.5996 131.223 26.1621C130.883 26.7246 130.713 27.3574 130.713 28.0605C130.713 28.7871 130.906 29.4551 131.293 30.0645C131.68 30.6738 132.225 31.1602 132.928 31.5234C133.631 31.875 134.445 32.0508 135.371 32.0508C136.637 32.0508 137.756 31.834 138.729 31.4004C139.713 30.9551 140.539 30.3574 141.207 29.6074C141.875 28.8457 142.361 27.9668 142.666 26.9707L143.281 27.9902C143.082 28.6113 142.771 29.2383 142.35 29.8711C141.928 30.5039 141.383 31.084 140.715 31.6113C140.047 32.127 139.262 32.5488 138.359 32.877C137.457 33.1934 136.432 33.3516 135.283 33.3516C134.076 33.3516 133.021 33.1289 132.119 32.6836C131.229 32.2266 130.537 31.6055 130.045 30.8203C129.553 30.0234 129.307 29.1152 129.307 28.0957C129.307 27.2168 129.506 26.4141 129.904 25.6875C130.303 24.9609 130.877 24.3398 131.627 23.8242C132.389 23.2969 133.309 22.8984 134.387 22.6289C135.477 22.3477 136.701 22.207 138.061 22.207H142.807ZM151.068 18.041V33H149.68V13.9805H151.051L151.068 18.041ZM150.805 22.0312L150.119 21.2227C150.225 20.2148 150.471 19.2539 150.857 18.3398C151.256 17.4258 151.777 16.6172 152.422 15.9141C153.078 15.2109 153.84 14.6543 154.707 14.2441C155.586 13.834 156.553 13.6289 157.607 13.6289C158.557 13.6289 159.406 13.7637 160.156 14.0332C160.906 14.291 161.539 14.7012 162.055 15.2637C162.582 15.8262 162.98 16.5527 163.25 17.4434C163.52 18.3223 163.654 19.3945 163.654 20.6602V33H162.266V20.6602C162.266 19.1602 162.061 18 161.65 17.1797C161.24 16.3477 160.666 15.7617 159.928 15.4219C159.201 15.082 158.352 14.9121 157.379 14.9121C156.254 14.9121 155.281 15.1641 154.461 15.668C153.652 16.1602 152.984 16.7871 152.457 17.5488C151.93 18.2988 151.525 19.0781 151.244 19.8867C150.975 20.6953 150.828 21.4102 150.805 22.0312ZM170.844 6V33H169.438V6H170.844ZM182.955 13.9805L173.709 22.7695L170.439 25.7402L170.105 24.5098L172.971 21.6445L181.092 13.9805H182.955ZM181.83 33L173.182 22.6289L174.008 21.4688L183.553 33H181.83Z" fill="white"/>
<path d="M0 23.2037C0 22.0603 0.925975 21.1333 2.06822 21.1333H10.6289C13.4211 21.1333 15.6846 23.3992 15.6846 26.1944V34.9295C15.6846 36.073 14.7586 37 13.6163 37H2.06822C0.925975 37 0 36.073 0 34.9295V23.2037Z" fill="white"/>
<path d="M17.9799 26.1944C17.9799 23.3992 20.2986 21.1333 23.1588 21.1333H31.9283C33.0984 21.1333 34.047 22.0603 34.047 23.2037V34.9295C34.047 36.073 33.0984 37 31.9283 37H20.0985C18.9284 37 17.9799 36.073 17.9799 34.9295V26.1944Z" fill="white"/>
<path d="M17.9799 5.11973C17.9799 3.94904 18.9284 3 20.0985 3H31.9283C33.0984 3 34.047 3.94904 34.047 5.11973V17.1247C34.047 18.2954 33.0984 19.2444 31.9283 19.2444H23.1588C20.2986 19.2444 17.9799 16.9246 17.9799 14.0629V5.11973Z" fill="white"/>
<path d="M0 5.11973C0 3.94904 0.925975 3 2.06822 3H13.6163C14.7586 3 15.6846 3.94904 15.6846 5.11973V14.0629C15.6846 16.9246 13.4211 19.2444 10.6289 19.2444H2.06822C0.925975 19.2444 0 18.2954 0 17.1247V5.11973Z" fill="white"/>
</svg>
